<svg width="235" height="47" viewBox="0 0 235 47" fill="none" xmlns="http://www.w3.org/2000/svg">
<path d="M24.1177 40.376C20.9486 40.376 17.4661 40.3044 13.6703 40.1611C9.89238 40.0179 5.77429 39.7672 1.316 39.4091C1.316 39.051 1.2981 38.5587 1.26229 37.932C1.22648 37.3053 1.19962 36.6697 1.18171 36.0251C1.18171 35.3806 1.18171 34.8613 1.18171 34.4674C1.95162 33.5722 2.87371 32.4173 3.948 31.0029C5.04019 29.5884 6.19505 28.0396 7.41257 26.3566C8.63009 24.6735 9.84762 22.9636 11.0651 21.2269C12.3006 19.4722 13.4554 17.7891 14.5297 16.1777C15.604 14.5663 16.544 13.125 17.3497 11.8537C18.1733 10.5825 18.7731 9.60667 19.1491 8.92629C18.6657 8.92629 17.7973 8.9621 16.544 9.03372C15.3086 9.10534 13.8762 9.19486 12.2469 9.30229C10.6175 9.39181 8.96133 9.49924 7.27829 9.62457C5.61314 9.732 4.11809 9.83943 2.79314 9.94686C2.75733 9.66038 2.73048 9.30229 2.71257 8.87257C2.69467 8.42496 2.68571 7.98629 2.68571 7.55657C2.68571 7.09105 2.69467 6.65238 2.71257 6.24057C2.73048 5.82876 2.74838 5.49753 2.76629 5.24686C3.89429 5.15734 5.16552 5.06781 6.58 4.97829C7.99448 4.87086 9.46267 4.77238 10.9846 4.68286C12.5065 4.57543 14.0015 4.48591 15.4697 4.41429C16.9558 4.34267 18.3255 4.29791 19.5789 4.28C19.8832 4.28 20.3756 4.28 21.056 4.28C21.7543 4.2621 22.4526 4.25314 23.1509 4.25314C23.867 4.25314 24.3863 4.2621 24.7086 4.28C24.7623 4.54857 24.7981 4.86191 24.816 5.22C24.8339 5.56019 24.8429 5.90934 24.8429 6.26743C24.8429 6.78667 24.825 7.2701 24.7891 7.71772C24.7712 8.14743 24.7444 8.46972 24.7086 8.68458C24.0282 9.97372 23.1867 11.424 22.184 13.0354C21.1813 14.6469 20.0981 16.3299 18.9343 18.0846C17.7705 19.8392 16.5798 21.576 15.3623 23.2949C14.1627 25.0137 13.0168 26.6251 11.9246 28.1291C10.8324 29.6331 9.86552 30.9312 9.024 32.0234C8.18248 33.1156 7.54686 33.9034 7.11714 34.3869C7.85124 34.4585 8.81809 34.5211 10.0177 34.5749C11.2352 34.6286 12.5512 34.6733 13.9657 34.7091C15.3981 34.727 16.8036 34.736 18.1823 34.736C19.2387 34.736 20.295 34.7181 21.3514 34.6823C22.4257 34.6465 23.4373 34.6107 24.3863 34.5749C24.4042 34.8971 24.4221 35.309 24.44 35.8103C24.4579 36.3116 24.449 36.8219 24.4131 37.3411C24.4131 37.9678 24.3773 38.5676 24.3057 39.1406C24.252 39.7135 24.1893 40.1253 24.1177 40.376ZM37.571 13.0354C37.768 13.125 38.0097 13.2682 38.2962 13.4651C38.5827 13.6442 38.8781 13.8501 39.1825 14.0829C39.4868 14.3156 39.7554 14.5484 39.9882 14.7811C40.2209 14.996 40.3821 15.175 40.4716 15.3183C39.6122 16.8044 38.6006 18.3621 37.4368 19.9914C36.2729 21.6208 35.0286 23.2501 33.7036 24.8794C32.3787 26.5088 31.0358 28.0665 29.675 29.5526C28.3143 31.0387 27.0162 32.3815 25.7808 33.5811C25.6554 33.4916 25.4674 33.3573 25.2168 33.1783C24.9482 32.9813 24.6707 32.7665 24.3842 32.5337C24.0977 32.301 23.8381 32.095 23.6053 31.916C23.3726 31.719 23.2114 31.5848 23.1219 31.5131C24.035 30.5642 25.0109 29.4899 26.0493 28.2903C27.1057 27.0907 28.171 25.8284 29.2453 24.5034C30.3196 23.1606 31.376 21.8088 32.4145 20.448C33.4529 19.0872 34.4108 17.7802 35.2882 16.5269C36.1655 15.2556 36.9265 14.0918 37.571 13.0354ZM42.5665 38.2811C42.1547 38.872 41.4206 39.4629 40.3642 40.0537C39.3078 40.6625 38.0455 40.9669 36.5773 40.9669C34.5183 40.9669 32.9874 40.4297 31.9848 39.3554C30.9821 38.2632 30.3196 36.7592 29.9973 34.8434C29.6929 32.9276 29.5408 30.7432 29.5408 28.2903C29.5408 26.7147 29.5587 24.9958 29.5945 23.1337C29.6303 21.2716 29.675 19.3469 29.7288 17.3594C29.8004 15.372 29.872 13.4204 29.9436 11.5046C30.0152 9.57086 30.0869 7.76248 30.1585 6.07943C30.2301 4.37848 30.3017 2.89238 30.3733 1.62115C31.1969 1.54953 31.9489 1.51372 32.6293 1.51372C33.0949 1.51372 33.5604 1.53162 34.0259 1.56743C34.4914 1.60324 34.9659 1.648 35.4493 1.70172C35.3777 2.99086 35.2971 4.52172 35.2076 6.29429C35.1181 8.04895 35.0196 9.92 34.9122 11.9074C34.8227 13.8949 34.7421 15.8823 34.6705 17.8697C34.5988 19.8571 34.5362 21.7103 34.4825 23.4291C34.4288 25.148 34.4019 26.6162 34.4019 27.8337C34.4019 29.1945 34.4735 30.5105 34.6168 31.7817C34.76 33.035 35.0644 34.0646 35.5299 34.8703C35.9954 35.676 36.7027 36.0789 37.6516 36.0789C38.3857 36.0789 38.9497 35.8998 39.3436 35.5417C39.7375 35.1836 40.0777 34.727 40.3642 34.172C40.4716 34.3152 40.6328 34.5838 40.8476 34.9777C41.0804 35.3537 41.3131 35.7834 41.5459 36.2669C41.7966 36.7324 42.0114 37.1531 42.1905 37.5291C42.3874 37.9051 42.5128 38.1558 42.5665 38.2811ZM90.8267 35.0046C90.5581 35.864 90.1463 36.7682 89.5912 37.7171C89.0362 38.6482 88.2663 39.436 87.2815 40.0806C86.2967 40.743 85.0255 41.0743 83.4678 41.0743C81.4625 41.0743 79.8689 40.6356 78.6872 39.7583C77.5234 38.881 76.6908 37.7261 76.1895 36.2937C75.6882 34.8613 75.4375 33.3036 75.4375 31.6206C75.4375 30.7432 75.4465 29.7048 75.4644 28.5051C75.5002 27.3055 75.536 26.0611 75.5718 24.772C75.6076 23.4829 75.6434 22.2385 75.6792 21.0389C75.7329 19.8213 75.7777 18.756 75.8135 17.8429C75.8493 16.9118 75.8762 16.2225 75.8941 15.7749C74.1394 15.9539 72.6175 16.1509 71.3284 16.3657C70.0571 16.5627 69.2425 16.7149 68.8844 16.8223C68.7769 16.2493 68.6874 15.6495 68.6158 15.0229C68.5621 14.3783 68.5173 13.7964 68.4815 13.2771C68.4636 12.7579 68.4547 12.4088 68.4547 12.2297C69.4573 12.0865 70.6211 11.9343 71.9461 11.7731C73.2889 11.612 74.6139 11.4867 75.9209 11.3971C75.9388 10.6989 75.9478 9.83943 75.9478 8.81886C75.9478 7.78038 75.9478 6.80457 75.9478 5.89143C75.9299 5.12153 75.8941 4.37848 75.8404 3.66229C75.7867 2.92819 75.7419 2.31943 75.7061 1.836L80.7552 1.54058C80.791 1.80915 80.8268 2.45372 80.8627 3.47429C80.9164 4.47696 80.9432 5.69448 80.9432 7.12686C80.9432 7.664 80.9432 8.31753 80.9432 9.08743C80.9432 9.83943 80.9432 10.5109 80.9432 11.1017C81.4804 11.0659 82.1428 11.0301 82.9307 10.9943C83.7185 10.9585 84.3541 10.9406 84.8375 10.9406C85.679 10.9227 86.4847 10.9137 87.2547 10.9137C88.0246 10.9137 88.687 10.9227 89.2421 10.9406C89.7971 10.9585 90.1373 10.9764 90.2627 10.9943C90.3522 11.4777 90.4059 12.1491 90.4238 13.0086C90.4596 13.868 90.4775 14.5842 90.4775 15.1571C90.2985 15.1392 89.6807 15.1303 88.6244 15.1303C87.5859 15.1124 86.5564 15.1124 85.5358 15.1303C84.8017 15.1482 83.996 15.184 83.1187 15.2377C82.2413 15.2735 81.4893 15.3093 80.8627 15.3451C80.8447 15.8107 80.8089 16.5 80.7552 17.4131C80.7194 18.3263 80.6836 19.3558 80.6478 20.5017C80.612 21.6297 80.5762 22.7846 80.5404 23.9663C80.5046 25.1301 80.4777 26.2223 80.4598 27.2429C80.4419 28.2455 80.4329 29.0602 80.4329 29.6869C80.4329 30.8149 80.4956 31.8891 80.6209 32.9097C80.7642 33.9303 81.0865 34.7718 81.5878 35.4343C82.107 36.0789 82.9217 36.4011 84.0318 36.4011C84.7838 36.4011 85.3926 36.1326 85.8581 35.5954C86.3236 35.0583 86.6817 34.4406 86.9324 33.7423C87.2009 33.044 87.3979 32.4621 87.5232 31.9966C87.6844 32.1756 87.9171 32.4173 88.2215 32.7217C88.5438 33.0082 88.884 33.3126 89.2421 33.6349C89.6181 33.9571 89.9493 34.2436 90.2358 34.4943C90.5402 34.745 90.7371 34.915 90.8267 35.0046ZM117.456 34.0109C117.098 34.5122 116.57 35.0941 115.872 35.7566C115.173 36.4011 114.305 37.0278 113.267 37.6366C112.228 38.2274 111.02 38.7198 109.641 39.1137C108.262 39.5076 106.705 39.7046 104.968 39.7046C102.282 39.7046 99.9276 39.1585 97.9043 38.0663C95.8811 36.9741 94.3144 35.3806 93.2043 33.2857C92.0942 31.173 91.5392 28.6036 91.5392 25.5777C91.5392 22.6771 92.139 20.1615 93.3386 18.0309C94.5562 15.9002 96.2213 14.253 98.3341 13.0891C100.447 11.9253 102.873 11.3434 105.612 11.3434C109.05 11.3434 111.727 12.3909 113.643 14.4857C115.576 16.5806 116.651 19.3916 116.865 22.9189C116.901 23.4918 116.919 24.0469 116.919 24.584C116.919 25.1032 116.892 25.6404 116.839 26.1954C116.606 26.1775 116.122 26.1596 115.388 26.1417C114.672 26.1059 113.831 26.079 112.864 26.0611C111.897 26.0253 110.921 25.9985 109.936 25.9806C108.969 25.9448 108.137 25.9269 107.439 25.9269C105.63 25.9269 103.777 26.0164 101.879 26.1954C99.9813 26.3745 98.2893 26.5804 96.8032 26.8131C96.8211 27.2787 96.8659 27.7352 96.9375 28.1829C97.0091 28.6305 97.0986 29.0602 97.2061 29.472C97.5104 30.5642 98.0655 31.5131 98.8712 32.3189C99.6769 33.1067 100.635 33.7154 101.745 34.1451C102.873 34.5749 104.064 34.7897 105.317 34.7897C106.642 34.7897 107.797 34.5928 108.781 34.1989C109.766 33.805 110.608 33.3215 111.306 32.7486C112.022 32.1756 112.595 31.6295 113.025 31.1103C113.473 30.591 113.813 30.2061 114.045 29.9554C114.153 30.045 114.359 30.2419 114.663 30.5463C114.985 30.8328 115.326 31.1819 115.684 31.5937C116.06 32.0055 116.409 32.4263 116.731 32.856C117.071 33.2678 117.313 33.6528 117.456 34.0109ZM96.8838 23.2143C98.1729 22.9994 99.6859 22.8114 101.423 22.6503C103.177 22.4891 105.165 22.4086 107.385 22.4086C108.549 22.4086 109.533 22.4265 110.339 22.4623C111.163 22.4802 111.736 22.507 112.058 22.5429C112.058 21.952 111.986 21.3253 111.843 20.6629C111.646 19.7676 111.288 18.8992 110.769 18.0577C110.25 17.2162 109.542 16.5179 108.647 15.9629C107.77 15.3899 106.66 15.1034 105.317 15.1034C103.777 15.1034 102.372 15.4347 101.1 16.0971C99.847 16.7417 98.8443 17.6728 98.0923 18.8903C97.3403 20.0899 96.9375 21.5312 96.8838 23.2143ZM155.882 41.1549C155.488 40.4745 154.942 39.615 154.244 38.5766C153.546 37.5381 152.767 36.437 151.907 35.2731C151.048 34.0914 150.171 32.9366 149.275 31.8086C148.38 30.6806 147.539 29.6779 146.751 28.8006C145.981 27.9232 145.336 27.2787 144.817 26.8669C144.495 27.1175 144.047 27.4667 143.474 27.9143C142.919 28.3619 142.4 28.7916 141.916 29.2034C141.433 29.5973 141.12 29.8749 140.976 30.036C140.959 30.8059 140.923 31.728 140.869 32.8023C140.833 33.8587 140.788 34.924 140.735 35.9983C140.681 37.0547 140.627 38.0215 140.574 38.8989C140.538 39.7583 140.502 40.376 140.466 40.752C140.072 40.7878 139.66 40.8236 139.231 40.8594C138.801 40.8952 138.371 40.9131 137.942 40.9131C137.422 40.9131 136.912 40.8863 136.411 40.8326C135.909 40.7968 135.462 40.752 135.068 40.6983C135.104 40.2686 135.148 39.3286 135.202 37.8783C135.274 36.428 135.354 34.6465 135.444 32.5337C135.551 30.403 135.659 28.0933 135.766 25.6046C135.874 23.0979 135.972 20.5733 136.062 18.0309C136.169 15.4705 136.259 13.0533 136.33 10.7794C136.42 8.48762 136.491 6.50019 136.545 4.81715C136.599 3.11619 136.626 1.88076 136.626 1.11086C136.966 1.09295 137.333 1.07505 137.727 1.05715C138.139 1.03924 138.55 1.03029 138.962 1.03029C139.499 1.03029 140.01 1.05715 140.493 1.11086C140.994 1.14667 141.442 1.22724 141.836 1.35258C141.836 2.69543 141.818 4.23524 141.782 5.972C141.746 7.69086 141.702 9.48134 141.648 11.3434C141.612 13.1876 141.558 14.9691 141.487 16.688C141.433 18.389 141.379 19.893 141.326 21.2C141.29 22.4891 141.245 23.447 141.191 24.0737C142.23 23.0173 143.483 21.943 144.951 20.8509C146.42 19.7408 147.932 18.6754 149.49 17.6549C151.066 16.6343 152.543 15.7122 153.922 14.8886C155.3 14.047 156.419 13.3756 157.279 12.8743C157.494 13.1071 157.735 13.4025 158.004 13.7606C158.29 14.1008 158.568 14.4678 158.836 14.8617C159.123 15.2556 159.383 15.6316 159.615 15.9897C159.866 16.3299 160.054 16.6164 160.179 16.8491C159.571 17.1893 158.738 17.6728 157.682 18.2994C156.625 18.9082 155.515 19.5707 154.351 20.2869C153.188 21.003 152.086 21.7013 151.048 22.3817C150.009 23.0442 149.195 23.5992 148.604 24.0469C148.998 24.3512 149.553 24.8794 150.269 25.6314C150.985 26.3834 151.791 27.2966 152.686 28.3709C153.599 29.4272 154.539 30.5731 155.506 31.8086C156.473 33.044 157.413 34.2884 158.326 35.5417C159.239 36.795 160.045 37.9947 160.743 39.1406C160.582 39.248 160.287 39.4002 159.857 39.5971C159.427 39.7762 158.953 39.9731 158.434 40.188C157.914 40.4029 157.413 40.5998 156.93 40.7789C156.464 40.9579 156.115 41.0832 155.882 41.1549ZM201.8 13.0354C201.997 13.125 202.239 13.2682 202.525 13.4651C202.812 13.6442 203.107 13.8501 203.412 14.0829C203.716 14.3156 203.985 14.5484 204.217 14.7811C204.45 14.996 204.611 15.175 204.701 15.3183C203.841 16.8044 202.83 18.3621 201.666 19.9914C200.502 21.6208 199.258 23.2501 197.933 24.8794C196.608 26.5088 195.265 28.0665 193.904 29.5526C192.544 31.0387 191.245 32.3815 190.01 33.5811C189.885 33.4916 189.697 33.3573 189.446 33.1783C189.177 32.9813 188.9 32.7665 188.613 32.5337C188.327 32.301 188.067 32.095 187.835 31.916C187.602 31.719 187.441 31.5848 187.351 31.5131C188.264 30.5642 189.24 29.4899 190.279 28.2903C191.335 27.0907 192.4 25.8284 193.475 24.5034C194.549 23.1606 195.605 21.8088 196.644 20.448C197.682 19.0872 198.64 17.7802 199.517 16.5269C200.395 15.2556 201.156 14.0918 201.8 13.0354ZM206.796 38.2811C206.384 38.872 205.65 39.4629 204.593 40.0537C203.537 40.6625 202.275 40.9669 200.807 40.9669C198.748 40.9669 197.217 40.4297 196.214 39.3554C195.211 38.2632 194.549 36.7592 194.227 34.8434C193.922 32.9276 193.77 30.7432 193.77 28.2903C193.77 26.7147 193.788 24.9958 193.824 23.1337C193.86 21.2716 193.904 19.3469 193.958 17.3594C194.03 15.372 194.101 13.4204 194.173 11.5046C194.245 9.57086 194.316 7.76248 194.388 6.07943C194.459 4.37848 194.531 2.89238 194.603 1.62115C195.426 1.54953 196.178 1.51372 196.859 1.51372C197.324 1.51372 197.79 1.53162 198.255 1.56743C198.721 1.60324 199.195 1.648 199.679 1.70172C199.607 2.99086 199.526 4.52172 199.437 6.29429C199.347 8.04895 199.249 9.92 199.141 11.9074C199.052 13.8949 198.971 15.8823 198.9 17.8697C198.828 19.8571 198.765 21.7103 198.712 23.4291C198.658 25.148 198.631 26.6162 198.631 27.8337C198.631 29.1945 198.703 30.5105 198.846 31.7817C198.989 33.035 199.294 34.0646 199.759 34.8703C200.225 35.676 200.932 36.0789 201.881 36.0789C202.615 36.0789 203.179 35.8998 203.573 35.5417C203.967 35.1836 204.307 34.727 204.593 34.172C204.701 34.3152 204.862 34.5838 205.077 34.9777C205.31 35.3537 205.542 35.7834 205.775 36.2669C206.026 36.7324 206.241 37.1531 206.42 37.5291C206.617 37.9051 206.742 38.1558 206.796 38.2811ZM219.565 40.8326C214.874 40.8326 211.409 39.5255 209.171 36.9114C206.933 34.2973 205.814 30.5373 205.814 25.6314C205.814 22.5339 206.387 19.9198 207.533 17.7891C208.697 15.6585 210.308 14.0381 212.367 12.928C214.444 11.8179 216.861 11.2629 219.619 11.2629C222.537 11.2629 224.945 11.9432 226.843 13.304C228.741 14.6469 230.147 16.5269 231.06 18.944C231.991 21.3432 232.457 24.1364 232.457 27.3234C232.457 30.0629 231.946 32.4442 230.926 34.4674C229.905 36.4728 228.428 38.0394 226.494 39.1674C224.578 40.2775 222.269 40.8326 219.565 40.8326ZM219.35 36.0251C220.801 36.0251 222.045 35.7566 223.083 35.2194C224.122 34.6823 224.963 33.9661 225.608 33.0709C226.253 32.1577 226.727 31.1371 227.031 30.0091C227.354 28.8811 227.515 27.7263 227.515 26.5446C227.515 24.396 227.219 22.4802 226.629 20.7971C226.038 19.1141 225.142 17.7981 223.943 16.8491C222.743 15.8823 221.212 15.3989 219.35 15.3989C217.524 15.3989 215.993 15.8375 214.758 16.7149C213.522 17.5922 212.591 18.8008 211.965 20.3406C211.356 21.8804 211.051 23.644 211.051 25.6314C211.051 28.6931 211.759 31.1909 213.173 33.1246C214.588 35.0583 216.647 36.0251 219.35 36.0251Z" fill="black"/>
<circle cx="55.4502" cy="25.9074" r="13.0006" stroke="#F2CB07" stroke-width="1.64218"/>
<line x1="56.4083" y1="25.9076" x2="68.1773" y2="25.9076" stroke="#F2CB07" stroke-width="0.273697"/>
<line x1="42.4496" y1="25.9076" x2="54.2186" y2="25.9076" stroke="#F2CB07" stroke-width="0.273697"/>
<line x1="55.1766" y1="38.6345" x2="55.1766" y2="27.1392" stroke="#F2CB07" stroke-width="0.273697"/>
<line x1="55.1766" y1="24.9495" x2="55.1766" y2="13.4542" stroke="#F2CB07" stroke-width="0.273697"/>
<line x1="63.6945" y1="35.9871" x2="46.804" y2="16.4873" stroke="#F2CB07" stroke-width="0.273697"/>
<line x1="45.9932" y1="33.849" x2="64.9791" y2="17.918" stroke="#F2CB07" stroke-width="0.273697"/>
<circle cx="55.3134" cy="26.0443" r="1.09479" fill="#F2CB07"/>
<circle cx="173.622" cy="25.9074" r="13.0006" stroke="#F2CB07" stroke-width="1.64218"/>
<line x1="174.58" y1="25.9076" x2="186.349" y2="25.9076" stroke="#F2CB07" stroke-width="0.273697"/>
<line x1="160.621" y1="25.9076" x2="172.39" y2="25.9076" stroke="#F2CB07" stroke-width="0.273697"/>
<line x1="173.348" y1="38.6345" x2="173.348" y2="27.1392" stroke="#F2CB07" stroke-width="0.273697"/>
<line x1="173.348" y1="24.9495" x2="173.348" y2="13.4542" stroke="#F2CB07" stroke-width="0.273697"/>
<line x1="181.866" y1="35.9871" x2="164.976" y2="16.4873" stroke="#F2CB07" stroke-width="0.273697"/>
<line x1="164.165" y1="33.849" x2="183.151" y2="17.918" stroke="#F2CB07" stroke-width="0.273697"/>
<circle cx="173.485" cy="26.0443" r="1.09479" fill="#F2CB07"/>
<line y1="43.643" x2="235" y2="43.643" stroke="#F2CB07" stroke-width="1.34286"/>
</svg>
